#tb 0: 1/12
0,          0,          0,        1,    77824, 0xc298c68b
0,          1,          1,        1,    77824, 0x22f7c63e
0,          2,          2,        1,    77824, 0x2aacc669
0,          3,          3,        1,    77824, 0xb428c6e9
0,          4,          4,        1,    77824, 0x5d50c786
0,          5,          5,        1,    77824, 0x8ddbc9e9
0,          6,          6,        1,    77824, 0x6dd5c9cf
0,          7,          7,        1,    77824, 0x7a72c647
0,          8,          8,        1,    77824, 0x0659c448
0,          9,          9,        1,    77824, 0x228bc465
0,         10,         10,        1,    77824, 0x87d9c3f9
0,         11,         11,        1,    77824, 0xd07dbf9c
0,         12,         12,        1,    77824, 0x9c91bc67
0,         13,         13,        1,    77824, 0xf91fb881
0,         14,         14,        1,    77824, 0x068eb41a
0,         15,         15,        1,    77824, 0x4b52b03f
0,         16,         16,        1,    77824, 0xc5e9b11b
0,         17,         17,        1,    77824, 0xf0aeac90
0,         18,         18,        1,    77824, 0x5700ad55
0,         19,         19,        1,    77824, 0x4d93a895
0,         20,         20,        1,    77824, 0x6df1aac7
0,         21,         21,        1,    77824, 0xeee6b4ae
0,         22,         22,        1,    77824, 0x6fe5bf5a
0,         23,         23,        1,    77824, 0x8c1ac3d3
0,         24,         24,        1,    77824, 0x5ab2c2da
0,         25,         25,        1,    77824, 0x6141aeab
0,         26,         26,        1,    77824, 0xbda0a2b8
0,         27,         27,        1,    77824, 0x46fa932a
0,         28,         28,        1,    77824, 0xed009680
0,         29,         29,        1,    77824, 0xf3078f3e
0,         30,         30,        1,    77824, 0x444f8b3c
0,         31,         31,        1,    77824, 0x7b468685
0,         32,         32,        1,    77824, 0x2b078646
0,         33,         33,        1,    77824, 0x9165859b
0,         34,         34,        1,    77824, 0xf96682c7
0,         35,         35,        1,    77824, 0x239186d0
0,         36,         36,        1,    77824, 0x499b8ec3
0,         37,         37,        1,    77824, 0x20658ea8
